<svg width="120" height="120" viewBox="0 0 120 120" fill="none" xmlns="http://www.w3.org/2000/svg">
  <!-- Subtle shadow/shade at base -->
  <ellipse cx="60" cy="107" rx="20" ry="6" fill="#808080" opacity="0.3"/>
  
  <!-- Lava lamp base -->
  <ellipse cx="60" cy="105" rx="18" ry="8" fill="#E6E6FA" stroke="#808080" stroke-width="0.2"/>
  <path d="M42 105C42 102 50 99 60 99C70 99 78 102 78 105L78 108C78 111 70 114 60 114C50 114 42 111 42 108L42 105Z" fill="#D8BFD8" stroke="#808080" stroke-width="0.2"/>
  
  <!-- Lava lamp bottom section -->
  <ellipse cx="60" cy="95" rx="12" ry="6" fill="#B8B8FF" stroke="#808080" stroke-width="0.2"/>
  <path d="M48 95C48 92 53 89 60 89C67 89 72 92 72 95L72 98C72 101 67 104 60 104C53 104 48 101 48 98L48 95Z" fill="#9A9AFF" stroke="#808080" stroke-width="0.2"/>
  
  <!-- Main glass container -->
  <ellipse cx="60" cy="60" rx="16" ry="35" fill="#F0F8FF" opacity="0.9" stroke="#808080" stroke-width="0.2"/>
  <path d="M44 60C44 40 51 25 60 25C69 25 76 40 76 60C76 80 69 95 60 95C51 95 44 80 44 60Z" fill="#E6F3FF" opacity="0.7" stroke="#808080" stroke-width="0.2"/>
  
  <!-- Lava blobs -->
  <ellipse cx="58" cy="45" rx="8" ry="12" fill="#FF6B35" stroke="#808080" stroke-width="0.2"/>
  <ellipse cx="64" cy="70" rx="6" ry="9" fill="#FF8C42" stroke="#808080" stroke-width="0.2"/>
  <ellipse cx="55" cy="80" rx="4" ry="6" fill="#FFA366" stroke="#808080" stroke-width="0.2"/>
  <ellipse cx="66" cy="55" rx="3" ry="5" fill="#FF6B35" stroke="#808080" stroke-width="0.2"/>
  <circle cx="62" cy="35" r="3" fill="#FF8C42" stroke="#808080" stroke-width="0.2"/>
  <circle cx="56" cy="65" r="2" fill="#FFA366" stroke="#808080" stroke-width="0.2"/>
  
  <!-- Lava lamp top cap -->
  <ellipse cx="60" cy="25" rx="12" ry="6" fill="#DDA0DD" stroke="#808080" stroke-width="0.2"/>
  <path d="M48 25C48 22 53 19 60 19C67 19 72 22 72 25L72 28C72 31 67 34 60 34C53 34 48 31 48 28L48 25Z" fill="#DA70D6" stroke="#808080" stroke-width="0.2"/>
  
  <!-- Top decorative ring -->
  <ellipse cx="60" cy="15" rx="8" ry="4" fill="#DA70D6" stroke="#808080" stroke-width="0.2"/>
  <path d="M52 15C52 13 56 11 60 11C64 11 68 13 68 15L68 17C68 19 64 21 60 21C56 21 52 19 52 17L52 15Z" fill="#C965C9" stroke="#808080" stroke-width="0.2"/>
</svg>
